<?xml version="1.0" encoding="utf-8"?>
<!-- Generator: Adobe Illustrator 27.5.0, SVG Export Plug-In . SVG Version: 6.00 Build 0)  -->
<svg version="1.1" xmlns="http://www.w3.org/2000/svg" xmlns:xlink="http://www.w3.org/1999/xlink" x="0px" y="0px"
	 viewBox="0 0 2200 2200" style="enable-background:new 0 0 2200 2200;" xml:space="preserve">
<g id="background">
	<rect style="fill:#FFFFFF;" width="2200" height="2200"/>
</g>
<g id="Objects">
	<path d="M1779.6,496.104c-179.528-147.657-444.222-110.353-597.098,57.288c-43.959,47.873-78.827,103.827-103.598,163.96
		c-20.172-39.241-44.978-76.105-73.85-109.495c-125.721-150.004-357.712-208.135-532.74-112.055
		C353.661,560.596,271.237,685.187,258.48,819.63c-4.763,50.134,0.594,101.604,13.811,149.898
		c25.756,93.574,79.696,176.949,147.219,244.904c67.896,65.76,144.744,126.667,217.518,187.016
		c29.32,24.208,58.384,49.397,85.058,76.348c46.102,46.187,86.244,97.869,124.513,150.694c3.45,4.7,8.069,8.906,13.522,11.89
		c19.937,10.909,44.943,3.591,55.852-16.346c0,0,3.086-5.64,3.086-5.64c40.47-73.058,88.273-142.908,134.146-213.164
		c141.594-212.449,300.256-416.413,492.445-586.229c3.733-3.157,4.935-8.594,2.595-13.127c-2.723-5.279-9.21-7.352-14.489-4.629
		c0,0-7.352,3.792-7.352,3.792c-7.348,3.806-14.618,7.775-21.82,11.853c-67.205,38.197-129.427,84.741-188.188,134.798
		c-100.551,86.134-191.218,183.355-273.257,287.167c-69.928,87.957-133.213,182.265-179.007,285.143
		c-48.051-47.294-97.757-93.359-148.752-137.417c-83.581-71.978-167.035-141.278-239.797-223.851
		c-64.412-76.199-109.557-173.939-111.671-273.542c-4.077-131.096,81.604-260.088,202.445-308.632
		c106.509-42.866,233.946-18.579,323.323,52.234c71.588,54.862,118.996,136.601,142.643,222.831c2.66,9.85,5.071,19.774,7.14,29.77
		c4.44,21.157,23.206,37.043,45.682,37.043c23.895,0,43.583-17.959,46.336-41.113c0,0.005-0.008,0.125-0.008,0.125
		c5.542-46.209,17.627-91.742,35.681-134.559c35.688-84.591,95.579-159.313,176.211-204.022
		c119.251-67.159,271.287-62.822,378.456,25.345c68.717,54.747,119.942,137.258,122.846,226.299
		c2.361,93.531-35.167,180.912-89.377,257.019c-118.162,162.957-284.859,284.216-419.844,433.253
		c-69.907,76.697-134.61,161.441-171.41,259.439c-5.57,17.032,17.211,26.289,25.544,11.354
		c34.436-66.239,81.178-125.008,132.603-178.867c123.264-128.59,269.284-231.471,396.046-357.248
		c94.727-93.764,183.123-207.363,208.231-342.193c3.945-20.791,6.371-41.926,7.286-63.083
		C1940.114,690.576,1874.398,572.003,1779.6,496.104z"/>
</g>
</svg>
